var ptsans = {"glyphs":{"S":{"x_min":37.5,"x_max":693.109375,"ha":736,"o":"m 502 261 q 470 333 502 305 q 388 384 437 361 q 281 431 338 407 q 174 491 223 455 q 92 579 125 526 q 59 714 59 632 q 83 837 59 785 q 150 923 106 889 q 254 975 194 958 q 387 992 313 992 q 547 977 472 992 q 670 935 622 962 l 611 775 q 519 811 580 795 q 387 827 458 827 q 285 800 320 827 q 250 729 250 774 q 282 660 250 687 q 364 608 315 632 q 471 560 413 585 q 578 499 529 535 q 660 412 627 464 q 693 282 693 360 q 667 148 693 204 q 595 54 641 92 q 482 0 548 17 q 337 -19 416 -19 q 154 0 233 -19 q 37 39 75 19 l 98 201 q 138 183 113 193 q 193 165 162 173 q 257 151 223 157 q 327 146 291 146 q 457 174 412 146 q 502 261 502 203 "},"/":{"x_min":-33.34375,"x_max":598.65625,"ha":567,"o":"m 462 989 l 598 927 l 102 -194 l -33 -130 l 462 989 "},"K":{"x_min":83.34375,"x_max":845.90625,"ha":861,"o":"m 323 415 l 273 415 l 273 0 l 83 0 l 83 972 l 273 972 l 273 541 l 318 560 l 586 972 l 802 972 l 519 563 l 444 510 l 522 456 l 845 0 l 611 0 l 323 415 "},"7":{"x_min":83.34375,"x_max":709.78125,"ha":788,"o":"m 144 0 l 462 748 l 523 816 l 440 803 l 83 803 l 83 972 l 709 972 l 709 919 l 320 0 l 144 0 "},"d":{"x_min":45.84375,"x_max":683.390625,"ha":749,"o":"m 669 244 q 670 128 669 186 q 683 -1 672 69 l 554 -1 l 529 89 l 523 89 q 443 10 495 40 q 320 -19 391 -19 q 118 67 190 -19 q 45 336 45 153 q 126 612 45 513 q 362 711 206 711 q 433 706 405 711 q 488 690 461 701 l 488 972 l 669 972 l 669 244 m 362 134 q 445 159 415 134 q 488 233 476 185 l 488 527 q 445 550 469 542 q 384 558 422 558 q 270 506 308 558 q 231 330 231 455 q 263 188 231 242 q 362 134 294 134 "},",":{"x_min":51.390625,"x_max":291.6875,"ha":350,"o":"m 58 89 q 89 164 58 136 q 166 192 120 192 q 258 153 225 192 q 291 50 291 114 q 272 -57 291 -12 q 224 -132 252 -103 q 163 -180 195 -162 q 104 -206 130 -197 l 51 -131 q 116 -80 88 -115 q 147 -7 144 -46 q 86 12 115 -11 q 58 89 58 36 "},"Y":{"x_min":-2.78125,"x_max":825.0625,"ha":822,"o":"m 316 361 l -2 972 l 223 972 l 401 606 l 420 504 l 427 504 l 448 609 l 620 972 l 825 972 l 506 362 l 506 0 l 316 0 l 316 361 "},"E":{"x_min":83.34375,"x_max":666.71875,"ha":725,"o":"m 83 972 l 659 972 l 659 803 l 273 803 l 273 576 l 625 576 l 625 407 l 273 407 l 273 169 l 666 169 l 666 0 l 83 0 l 83 972 "},"y":{"x_min":-12.5,"x_max":675.046875,"ha":664,"o":"m 331 304 l 356 195 l 365 195 l 383 305 l 488 695 l 675 695 l 463 68 q 413 -74 437 -9 q 359 -186 388 -139 q 295 -259 330 -233 q 211 -285 259 -285 q 95 -261 138 -285 l 129 -116 q 170 -125 150 -125 q 232 -97 202 -125 q 277 0 262 -70 l -12 695 l 204 695 l 331 304 "},"\"":{"x_min":125.015625,"x_max":489.359375,"ha":558,"o":"m 125 972 l 283 972 l 233 672 l 125 672 l 125 972 m 331 972 l 489 972 l 439 672 l 331 672 l 331 972 "},"‹":{"x_min":40.28125,"x_max":377.8125,"ha":426,"o":"m 40 359 l 262 679 l 366 593 l 251 417 l 184 360 l 251 310 l 377 142 l 270 53 l 40 359 "},"„":{"x_min":52.78125,"x_max":496.96875,"ha":550,"o":"m 292 86 q 319 152 292 127 q 388 177 346 177 q 467 143 438 177 q 496 56 496 110 q 479 -38 496 0 q 437 -103 462 -77 q 386 -143 413 -128 q 341 -165 359 -158 l 295 -89 q 344 -55 323 -76 q 369 -2 366 -34 q 317 19 341 -3 q 292 86 292 42 m 52 86 q 79 152 52 127 q 148 177 106 177 q 227 143 198 177 q 256 56 256 110 q 239 -38 256 0 q 197 -103 222 -77 q 146 -143 173 -128 q 101 -165 119 -158 l 55 -89 q 104 -55 83 -76 q 129 -2 126 -34 q 77 19 101 -3 q 52 86 52 42 "},"g":{"x_min":45.84375,"x_max":666.71875,"ha":745,"o":"m 666 0 q 584 -222 666 -151 q 355 -294 502 -294 q 197 -280 255 -294 q 111 -250 140 -266 l 148 -107 q 222 -132 180 -120 q 327 -145 265 -145 q 456 -104 422 -145 q 490 9 490 -63 l 490 54 l 484 54 q 312 -11 436 -11 q 111 72 177 -11 q 45 333 45 155 q 134 615 45 519 q 393 711 223 711 q 552 698 481 711 q 666 669 622 686 l 666 0 m 361 133 q 442 156 413 133 q 486 227 470 180 l 486 539 q 379 558 443 558 q 270 505 309 558 q 231 339 231 453 q 265 185 231 238 q 361 133 298 133 "},"́":{"x_min":-423.65625,"x_max":-166.6875,"ha":3,"o":"m -350 1000 l -166 1000 l -166 958 l -320 786 l -423 786 l -350 1000 "},"–":{"x_min":151.40625,"x_max":765.34375,"ha":917,"o":"m 151 481 l 765 481 l 765 321 l 151 321 l 151 481 "},"e":{"x_min":45.84375,"x_max":657,"ha":706,"o":"m 634 59 q 521 3 593 26 q 369 -19 450 -19 q 123 78 201 -19 q 45 347 45 176 q 133 622 45 530 q 379 714 220 714 q 481 700 431 714 q 570 654 531 686 q 633 567 609 622 q 657 433 657 513 q 653 370 657 403 q 643 301 650 337 l 226 301 q 271 169 230 213 q 404 125 312 125 q 506 142 461 125 q 575 177 551 159 l 634 59 m 376 570 q 271 527 305 570 q 230 414 237 485 l 488 414 q 466 529 494 489 q 376 570 437 570 "},"J":{"x_min":-31.953125,"x_max":372.25,"ha":464,"o":"m 181 972 l 372 972 l 372 260 q 359 155 372 205 q 318 67 347 105 q 245 5 290 28 q 137 -17 201 -17 q 50 -8 97 -17 q -31 14 2 0 l 9 170 q 91 152 45 152 q 165 195 150 152 q 181 309 181 238 l 181 972 "},"|":{"x_min":83.34375,"x_max":231.96875,"ha":315,"o":"m 83 972 l 231 972 l 231 -181 l 83 -181 l 83 972 "},"^":{"x_min":27.78125,"x_max":652.828125,"ha":695,"o":"m 300 979 l 395 979 l 652 573 l 470 573 l 372 742 l 343 839 l 308 741 l 200 573 l 27 573 l 300 979 "},"q":{"x_min":45.84375,"x_max":666.71875,"ha":745,"o":"m 666 -278 l 486 -278 l 486 60 l 480 60 q 416 2 456 24 q 312 -19 376 -19 q 114 68 183 -19 q 45 333 45 155 q 139 615 45 519 q 408 711 233 711 q 483 707 445 711 q 554 697 520 704 q 618 683 588 691 q 666 669 647 676 l 666 -278 m 361 134 q 442 157 413 134 q 486 228 470 181 l 486 539 q 438 554 465 551 q 379 558 412 558 q 268 502 305 558 q 231 340 231 447 q 265 186 231 239 q 361 134 298 134 "},"b":{"x_min":79.171875,"x_max":698.671875,"ha":745,"o":"m 79 972 l 259 972 l 259 638 l 265 638 q 340 691 294 672 q 441 711 386 711 q 632 625 566 711 q 698 365 698 540 q 606 80 698 177 q 352 -17 513 -17 q 190 -2 263 -17 q 79 30 116 12 l 79 972 m 388 558 q 307 532 338 558 q 259 458 276 506 l 259 155 q 307 140 281 144 q 362 136 333 136 q 474 189 436 136 q 512 359 512 242 q 388 558 512 558 "},"D":{"x_min":83.34375,"x_max":845.90625,"ha":899,"o":"m 83 972 q 149 979 112 976 q 225 983 186 981 q 300 985 263 984 q 366 986 337 986 q 587 949 495 986 q 736 848 679 913 q 819 693 793 783 q 845 494 845 602 q 820 304 845 395 q 737 141 795 212 q 584 28 679 71 q 348 -15 488 -15 q 289 -13 326 -15 q 213 -10 252 -12 q 137 -5 173 -8 q 83 -1 101 -3 l 83 972 m 381 817 q 320 815 351 817 q 273 811 288 814 l 273 159 q 292 157 279 158 q 320 156 305 156 q 350 154 336 155 q 370 154 363 154 q 504 182 451 154 q 589 258 558 210 q 633 367 620 305 q 645 494 645 429 q 634 609 645 551 q 593 712 623 666 q 512 787 563 758 q 381 817 461 817 "},"z":{"x_min":43.0625,"x_max":587.546875,"ha":636,"o":"m 43 153 l 316 482 l 387 542 l 43 542 l 43 695 l 587 695 l 587 542 l 316 207 l 247 153 l 587 153 l 587 0 l 43 0 l 43 153 "},"w":{"x_min":-11.109375,"x_max":1012.578125,"ha":1001,"o":"m 581 695 l 708 339 l 733 223 l 738 223 l 758 340 l 847 695 l 1012 695 l 798 -7 l 665 -7 l 525 382 l 506 469 l 500 469 l 483 380 l 350 -7 l 212 -7 l -11 695 l 184 695 l 286 345 l 302 222 l 309 222 l 333 347 l 448 695 l 581 695 "},"$":{"x_min":95.84375,"x_max":716.71875,"ha":788,"o":"m 330 -18 q 191 -1 251 -15 q 98 30 131 12 l 152 187 q 222 158 177 172 q 330 139 268 144 l 330 423 q 245 466 287 442 q 169 523 202 490 q 115 603 136 556 q 95 713 95 649 q 159 899 95 833 q 330 984 222 965 l 330 1111 l 475 1111 l 475 990 q 581 973 536 985 q 666 944 627 961 l 616 791 q 556 813 593 802 q 475 830 520 824 l 475 569 q 561 525 518 549 q 639 467 605 501 q 695 389 673 434 q 716 281 716 344 q 652 82 716 154 q 475 -9 587 11 l 475 -139 l 330 -139 l 330 -18 m 536 261 q 500 333 536 305 q 415 386 465 362 l 415 139 q 506 177 476 145 q 536 261 536 209 m 276 729 q 309 659 276 687 q 390 608 341 631 l 390 834 q 300 802 325 831 q 276 729 276 772 "},"\\":{"x_min":-33.34375,"x_max":608.375,"ha":589,"o":"m 608 -131 l 470 -194 l -33 928 l 108 988 l 608 -131 "},"’":{"x_min":52.78125,"x_max":256.96875,"ha":310,"o":"m 52 894 q 79 960 52 935 q 148 985 106 985 q 227 951 198 985 q 256 864 256 918 q 239 769 256 808 q 197 704 222 730 q 146 664 173 679 q 101 643 119 649 l 55 719 q 104 752 83 731 q 129 806 126 773 q 77 827 101 804 q 52 894 52 850 "},"~":{"x_min":38.890625,"x_max":693.109375,"ha":732,"o":"m 38 524 q 156 597 104 577 q 252 617 208 617 q 327 605 293 617 q 394 580 362 593 q 457 554 426 566 q 520 543 488 543 q 572 551 545 543 q 627 584 598 559 l 693 441 q 601 389 643 404 q 523 374 559 374 q 451 386 484 374 q 386 413 418 398 q 323 440 355 428 q 255 453 291 453 q 184 438 222 453 q 100 387 145 424 l 38 524 "},"-":{"x_min":75,"x_max":423.640625,"ha":500,"o":"m 75 479 l 423 479 l 423 319 l 75 319 l 75 479 "},"Q":{"x_min":52.78125,"x_max":975.078125,"ha":931,"o":"m 975 -280 q 840 -299 908 -299 q 702 -284 769 -299 q 573 -253 636 -269 q 452 -221 511 -236 q 343 -207 394 -207 q 279 -215 309 -207 l 279 -51 q 359 -43 318 -43 q 475 -56 418 -43 q 593 -86 533 -70 q 715 -116 652 -102 q 847 -130 777 -130 q 909 -126 877 -130 q 975 -114 941 -123 l 975 -280 m 52 486 q 159 860 52 729 q 465 992 266 992 q 647 955 569 992 q 776 853 725 919 q 852 693 827 786 q 877 486 877 600 q 770 112 877 243 q 465 -19 662 -19 q 281 17 359 -19 q 153 119 204 53 q 77 279 102 186 q 52 486 52 372 m 252 486 q 265 350 252 412 q 303 244 277 289 q 369 175 329 200 q 465 150 409 150 q 622 229 566 150 q 677 486 677 308 q 666 618 677 557 q 629 725 654 679 q 563 797 604 771 q 465 823 523 823 q 308 741 363 823 q 252 486 252 660 "},"M":{"x_min":83.34375,"x_max":1027.859375,"ha":1111,"o":"m 837 504 l 858 696 l 850 696 l 790 541 l 583 179 l 522 179 l 304 542 l 243 696 l 236 696 l 263 505 l 263 0 l 83 0 l 83 972 l 256 972 l 516 527 l 562 416 l 568 416 l 609 530 l 855 972 l 1027 972 l 1027 0 l 837 0 l 837 504 "},"C":{"x_min":52.78125,"x_max":741.71875,"ha":776,"o":"m 741 40 q 628 -5 697 8 q 487 -19 559 -19 q 321 8 400 -19 q 183 95 243 35 q 88 252 123 155 q 52 486 52 349 q 92 726 52 629 q 195 881 131 822 q 336 966 258 940 q 491 992 413 992 q 632 980 575 992 q 727 954 690 969 l 690 793 q 614 816 658 809 q 508 823 570 823 q 322 740 393 823 q 252 485 252 658 q 269 348 252 410 q 320 242 286 286 q 404 174 354 198 q 522 150 455 150 q 627 162 584 150 q 702 194 670 175 l 741 40 "},"[":{"x_min":83.34375,"x_max":409.75,"ha":450,"o":"m 83 972 l 409 972 l 409 819 l 255 819 l 255 -166 l 409 -166 l 409 -319 l 83 -319 l 83 972 "},"L":{"x_min":83.34375,"x_max":698.671875,"ha":714,"o":"m 698 0 l 83 0 l 83 972 l 273 972 l 273 169 l 698 169 l 698 0 "},"!":{"x_min":119.453125,"x_max":344.46875,"ha":408,"o":"m 138 972 l 325 972 l 325 515 l 288 290 l 175 290 l 138 515 l 138 972 m 119 92 q 150 169 119 140 q 230 198 180 198 q 313 169 283 198 q 344 92 344 140 q 313 14 344 43 q 230 -15 283 -15 q 150 14 180 -15 q 119 92 119 43 "}," ":{"x_min":0,"x_max":0,"ha":351},"{":{"x_min":59.734375,"x_max":486.15625,"ha":515,"o":"m 170 133 q 141 230 170 204 q 59 257 112 257 l 59 396 q 141 424 112 396 q 170 514 170 452 l 170 804 q 206 926 170 879 q 319 974 241 974 l 486 974 l 486 821 l 416 821 q 361 801 379 821 q 344 737 344 782 l 344 466 q 315 374 344 405 q 247 336 286 343 l 247 322 q 314 280 284 316 q 344 186 344 244 l 344 -82 q 361 -146 344 -127 q 418 -166 377 -166 l 486 -166 l 486 -319 l 319 -319 q 209 -275 247 -319 q 170 -151 170 -231 l 170 133 "},"X":{"x_min":13.890625,"x_max":863.953125,"ha":879,"o":"m 312 494 l 41 972 l 270 972 l 420 691 l 454 592 l 486 691 l 643 972 l 850 972 l 569 504 l 863 0 l 637 0 l 466 299 l 429 402 l 393 299 l 220 0 l 13 0 l 312 494 "},"P":{"x_min":83.34375,"x_max":759.78125,"ha":795,"o":"m 83 962 q 211 979 141 973 q 351 986 281 986 q 496 974 423 986 q 627 926 569 962 q 722 828 686 891 q 759 663 759 765 q 727 508 759 572 q 643 405 695 445 q 522 347 590 365 q 383 329 455 329 q 361 329 376 329 q 329 329 345 329 q 296 331 312 330 q 273 334 280 333 l 273 0 l 83 0 l 83 962 m 366 822 q 313 819 338 822 q 273 815 288 817 l 273 499 q 290 496 279 498 q 313 494 301 495 q 338 494 326 494 q 355 494 350 494 q 429 500 393 494 q 495 526 466 507 q 542 578 525 545 q 559 666 559 612 q 543 742 559 712 q 499 790 526 771 q 437 815 472 808 q 366 822 402 822 "},"%":{"x_min":71.21875,"x_max":1122.765625,"ha":1167,"o":"m 71 753 q 89 859 71 815 q 139 933 107 904 q 216 975 171 962 q 314 989 261 989 q 411 976 367 989 q 488 936 455 964 q 539 863 521 908 q 558 753 557 818 q 539 642 557 687 q 488 569 521 597 q 411 529 455 541 q 314 517 367 517 q 216 529 261 517 q 139 569 171 541 q 89 642 107 597 q 71 753 71 687 m 232 753 q 314 634 232 634 q 376 659 357 634 q 396 753 394 685 q 376 845 394 819 q 314 872 357 872 q 251 845 271 872 q 232 753 232 819 m 635 238 q 653 344 635 300 q 703 418 671 389 q 780 460 735 447 q 878 474 825 474 q 975 461 931 474 q 1052 421 1019 449 q 1103 348 1085 393 q 1122 238 1121 303 q 1103 127 1121 172 q 1052 54 1085 82 q 975 14 1019 26 q 878 2 931 2 q 780 14 825 2 q 703 54 735 26 q 653 127 671 82 q 635 238 635 172 m 796 238 q 878 119 796 119 q 940 144 921 119 q 960 238 958 170 q 940 330 958 304 q 878 357 921 357 q 815 330 835 357 q 796 238 796 304 m 940 992 l 1041 900 l 241 -19 l 139 76 l 940 992 "},"#":{"x_min":26.390625,"x_max":748.671875,"ha":788,"o":"m 401 285 l 277 285 l 227 71 l 79 71 l 129 285 l 26 285 l 56 420 l 161 420 l 195 567 l 95 567 l 126 702 l 227 702 l 276 902 l 423 902 l 376 702 l 500 702 l 548 902 l 695 902 l 648 702 l 748 702 l 713 567 l 616 567 l 581 420 l 677 420 l 644 285 l 550 285 l 500 71 l 351 71 l 401 285 m 309 420 l 433 420 l 468 567 l 344 567 l 309 420 "},"_":{"x_min":0,"x_max":616.71875,"ha":617,"o":"m 0 -163 l 616 -163 l 616 -312 l 0 -312 l 0 -163 "},"+":{"x_min":59.734375,"x_max":673.671875,"ha":732,"o":"m 59 548 l 284 548 l 284 783 l 447 783 l 447 548 l 673 548 l 673 392 l 447 392 l 447 154 l 284 154 l 284 392 l 59 392 l 59 548 "},"‚":{"x_min":52.78125,"x_max":256.96875,"ha":310,"o":"m 52 86 q 79 152 52 127 q 148 177 106 177 q 227 143 198 177 q 256 56 256 110 q 239 -38 256 0 q 197 -103 222 -77 q 146 -143 173 -128 q 101 -165 119 -158 l 55 -89 q 104 -55 83 -76 q 129 -2 126 -34 q 77 19 101 -3 q 52 86 52 42 "},"‑":{"x_min":75,"x_max":423.640625,"ha":500,"o":"m 75 479 l 423 479 l 423 319 l 75 319 l 75 479 "},")":{"x_min":15.28125,"x_max":370.859375,"ha":454,"o":"m 134 989 q 245 842 201 922 q 317 678 290 762 q 356 508 344 594 q 370 342 369 423 q 356 184 369 269 q 316 14 344 99 q 243 -153 288 -71 q 138 -306 198 -235 l 15 -228 q 101 -88 68 -160 q 154 55 134 -17 q 181 201 173 128 q 190 337 188 274 q 178 486 188 412 q 147 635 168 561 q 93 779 126 709 q 18 914 61 850 l 134 989 "},"'":{"x_min":125.015625,"x_max":283.359375,"ha":353,"o":"m 125 972 l 283 972 l 233 672 l 125 672 l 125 972 "},"}":{"x_min":48.609375,"x_max":473.65625,"ha":515,"o":"m 362 521 q 391 424 362 450 q 473 398 420 398 l 473 259 q 391 230 420 259 q 362 140 362 202 l 362 -149 q 325 -271 362 -224 q 211 -319 288 -319 l 48 -319 l 48 -166 l 118 -166 q 172 -147 155 -166 q 190 -82 190 -128 l 190 188 q 219 280 190 249 q 287 318 248 311 l 287 332 q 220 374 250 338 q 190 468 190 410 l 190 737 q 173 800 190 780 q 116 821 156 821 l 48 821 l 48 974 l 213 974 q 325 930 287 974 q 362 806 362 886 l 362 521 "},"‰":{"x_min":71.21875,"x_max":1654.765625,"ha":1711,"o":"m 71 753 q 89 859 71 815 q 139 933 107 904 q 216 975 171 962 q 314 989 261 989 q 411 976 367 989 q 488 936 455 964 q 539 863 521 908 q 558 753 557 818 q 539 642 557 687 q 488 569 521 597 q 411 529 455 541 q 314 517 367 517 q 216 529 261 517 q 139 569 171 541 q 89 642 107 597 q 71 753 71 687 m 232 753 q 314 634 232 634 q 376 659 357 634 q 396 753 394 685 q 376 845 394 819 q 314 872 357 872 q 251 845 271 872 q 232 753 232 819 m 628 238 q 646 344 628 300 q 696 418 664 389 q 773 460 728 447 q 871 474 818 474 q 968 461 924 474 q 1045 421 1012 449 q 1096 348 1078 393 q 1115 238 1114 303 q 1096 127 1114 172 q 1045 54 1078 82 q 968 14 1012 26 q 871 2 924 2 q 773 14 818 2 q 696 54 728 26 q 646 127 664 82 q 628 238 628 172 m 789 238 q 871 119 789 119 q 933 144 914 119 q 953 238 951 170 q 933 330 951 304 q 871 357 914 357 q 808 330 828 357 q 789 238 789 304 m 1167 238 q 1185 344 1167 300 q 1235 418 1203 389 q 1312 460 1267 447 q 1410 474 1357 474 q 1507 461 1463 474 q 1584 421 1551 449 q 1635 348 1617 393 q 1654 238 1653 303 q 1635 127 1653 172 q 1584 54 1617 82 q 1507 14 1551 26 q 1410 2 1463 2 q 1312 14 1357 2 q 1235 54 1267 26 q 1185 127 1203 82 q 1167 238 1167 172 m 1328 238 q 1410 119 1328 119 q 1472 144 1453 119 q 1492 238 1490 170 q 1472 330 1490 304 q 1410 357 1453 357 q 1347 330 1367 357 q 1328 238 1328 304 m 940 992 l 1041 900 l 241 -19 l 139 76 l 940 992 "},"a":{"x_min":31.953125,"x_max":632,"ha":689,"o":"m 75 653 q 206 693 130 678 q 366 708 283 708 q 487 690 438 708 q 564 641 536 673 q 604 565 593 609 q 616 465 616 520 q 612 342 616 404 q 607 220 608 280 q 611 105 607 161 q 632 -1 615 48 l 484 -1 l 455 94 l 448 94 q 371 20 420 51 q 244 -11 322 -11 q 156 3 195 -11 q 90 45 118 18 q 47 109 62 72 q 31 191 31 145 q 60 299 31 255 q 142 370 88 343 q 270 407 195 397 q 436 414 344 418 q 425 525 445 491 q 331 559 404 559 q 217 547 277 559 q 118 518 156 536 l 75 653 m 304 138 q 390 162 358 138 q 437 214 422 186 l 437 304 q 354 305 394 308 q 284 292 315 302 q 236 265 254 283 q 218 219 218 247 q 240 159 218 180 q 304 138 263 138 "},"T":{"x_min":15.28125,"x_max":773.671875,"ha":789,"o":"m 773 803 l 490 803 l 490 0 l 300 0 l 300 803 l 15 803 l 15 972 l 773 972 l 773 803 "},"—":{"x_min":151.40625,"x_max":987.578125,"ha":1139,"o":"m 151 481 l 987 481 l 987 321 l 151 321 l 151 481 "},"=":{"x_min":59.734375,"x_max":673.671875,"ha":732,"o":"m 59 681 l 673 681 l 673 525 l 59 525 l 59 681 m 59 416 l 673 416 l 673 260 l 59 260 l 59 416 "},"N":{"x_min":83.34375,"x_max":829.234375,"ha":913,"o":"m 325 506 l 248 659 l 241 659 l 263 506 l 263 0 l 83 0 l 83 979 l 222 979 l 590 461 l 663 312 l 670 312 l 648 461 l 648 972 l 829 972 l 829 -7 l 690 -7 l 325 506 "},"⁄":{"x_min":-229.1875,"x_max":487.53125,"ha":256,"o":"m 369 993 l 487 923 l -109 -19 l -229 54 l 369 993 "},"2":{"x_min":95.84375,"x_max":680.609375,"ha":788,"o":"m 659 735 q 634 591 659 664 q 568 450 608 519 q 481 316 529 380 q 387 197 433 251 l 313 140 l 313 133 l 413 153 l 680 153 l 680 0 l 95 0 l 95 93 q 170 174 129 127 q 254 273 212 220 q 337 380 297 325 q 409 492 377 436 q 460 601 441 548 q 479 701 479 654 q 446 795 479 758 q 343 832 413 832 q 252 813 298 832 q 173 765 205 794 l 101 893 q 224 964 155 937 q 386 992 293 992 q 495 975 445 992 q 581 926 545 958 q 638 846 618 894 q 659 735 659 798 "},"j":{"x_min":-22.21875,"x_max":301.90625,"ha":372,"o":"m 95 695 l 276 695 l 276 -29 q 226 -222 276 -155 q 66 -289 176 -289 q -22 -279 25 -289 l -22 -127 q -12 -128 -16 -127 q -4 -129 -8 -129 q 77 -88 58 -129 q 95 22 95 -48 l 95 695 m 71 890 q 101 959 71 930 q 183 988 131 988 q 269 959 236 988 q 301 890 301 930 q 269 823 301 850 q 183 796 236 796 q 101 823 131 796 q 71 890 71 850 "},"Z":{"x_min":37.5,"x_max":711.171875,"ha":749,"o":"m 37 169 l 448 744 l 520 803 l 37 803 l 37 972 l 711 972 l 711 803 l 297 221 l 226 169 l 711 169 l 711 0 l 37 0 l 37 169 "},"u":{"x_min":72.234375,"x_max":690.328125,"ha":747,"o":"m 252 695 l 252 300 q 272 178 252 215 q 351 141 293 141 q 436 171 402 141 q 487 246 470 202 l 487 695 l 668 695 l 668 211 q 673 99 668 154 q 690 0 679 44 l 554 0 l 522 103 l 516 103 q 427 15 484 50 q 293 -19 370 -19 q 198 -5 240 -19 q 129 40 156 8 q 86 126 101 72 q 72 262 72 181 l 72 695 l 252 695 "},"1":{"x_min":87.5,"x_max":694.5,"ha":788,"o":"m 140 153 l 333 153 l 333 701 l 354 795 l 287 713 l 163 629 l 87 733 l 404 989 l 505 989 l 505 153 l 694 153 l 694 0 l 140 0 l 140 153 "},"›":{"x_min":47.21875,"x_max":386.140625,"ha":426,"o":"m 386 372 l 163 53 l 58 138 l 175 314 l 241 371 l 175 421 l 47 591 l 155 679 l 386 372 "},"k":{"x_min":79.171875,"x_max":684.78125,"ha":682,"o":"m 308 287 l 259 287 l 259 0 l 79 0 l 79 972 l 259 972 l 259 398 l 301 417 l 459 695 l 658 695 l 491 430 l 420 377 l 497 323 l 684 0 l 477 0 l 308 287 "},"<":{"x_min":55.5625,"x_max":677.828125,"ha":732,"o":"m 55 396 l 55 493 l 591 814 l 670 689 l 359 495 l 233 447 l 358 404 l 677 214 l 598 89 l 55 396 "},"t":{"x_min":6.9375,"x_max":477.8125,"ha":485,"o":"m 6 695 l 102 695 l 102 825 l 283 877 l 283 695 l 452 695 l 452 542 l 283 542 l 283 275 q 297 172 283 203 q 352 141 312 141 q 400 146 380 141 q 445 163 420 152 l 477 24 q 390 -6 440 6 q 288 -19 340 -19 q 147 30 193 -19 q 102 192 102 79 l 102 542 l 6 542 l 6 695 "},"W":{"x_min":0,"x_max":1197.3125,"ha":1197,"o":"m 336 429 l 354 256 l 359 256 l 379 431 l 548 972 l 673 972 l 840 429 l 859 256 l 865 256 l 886 431 l 1004 972 l 1197 972 l 929 -7 l 801 -7 l 627 533 l 604 681 l 597 681 l 573 531 l 401 -7 l 266 -7 l 0 972 l 206 972 l 336 429 "},"v":{"x_min":-19.453125,"x_max":682,"ha":663,"o":"m 319 330 l 343 223 l 350 223 l 369 333 l 487 695 l 682 695 l 391 -7 l 281 -7 l -19 695 l 190 695 l 319 330 "},">":{"x_min":54.171875,"x_max":676.4375,"ha":732,"o":"m 676 507 l 676 410 l 140 89 l 61 215 l 372 407 l 498 457 l 373 498 l 54 690 l 133 814 l 676 507 "},"s":{"x_min":34.71875,"x_max":547.265625,"ha":586,"o":"m 366 191 q 343 236 366 219 q 284 266 319 253 q 208 295 250 280 q 131 335 166 310 q 73 400 97 361 q 50 502 50 440 q 111 659 50 605 q 287 714 172 714 q 430 697 366 714 q 530 660 494 680 l 490 529 q 409 556 458 542 q 311 570 361 570 q 230 507 230 570 q 254 467 230 482 q 312 438 277 451 q 388 409 347 425 q 465 370 430 394 q 523 307 500 346 q 547 207 547 268 q 479 41 547 101 q 277 -19 412 -19 q 139 0 204 -19 q 34 43 75 18 l 84 177 q 169 142 116 159 q 277 125 222 125 q 342 140 318 125 q 366 191 366 155 "},"B":{"x_min":83.34375,"x_max":768.109375,"ha":821,"o":"m 737 745 q 728 673 737 709 q 698 607 719 637 q 644 555 677 577 q 563 521 611 532 l 563 512 q 643 489 605 505 q 708 443 680 472 q 752 372 736 414 q 768 273 768 330 q 736 143 768 198 q 650 54 704 88 q 529 2 597 19 q 388 -14 461 -14 q 328 -14 365 -14 q 249 -11 291 -14 q 163 -5 206 -9 q 83 6 119 -1 l 83 965 q 143 973 109 969 q 216 980 177 977 q 296 984 255 983 q 377 986 337 986 q 510 975 445 986 q 625 938 575 965 q 707 865 676 912 q 737 745 737 818 m 390 143 q 457 151 425 143 q 515 177 490 159 q 555 220 540 194 q 570 283 570 247 q 552 355 570 329 q 505 397 534 382 q 440 415 476 411 q 368 420 404 420 l 266 420 l 266 151 q 288 147 273 148 q 321 145 304 145 q 357 143 338 144 q 390 143 376 143 m 327 564 q 372 565 347 564 q 415 569 398 566 q 506 619 468 586 q 544 706 544 652 q 530 766 544 742 q 493 804 516 790 q 441 823 470 817 q 380 829 412 829 q 313 827 344 829 q 266 823 283 826 l 266 564 l 327 564 "},"…":{"x_min":73.34375,"x_max":1054.359375,"ha":1124,"o":"m 73 92 q 103 169 73 140 q 184 198 134 198 q 267 169 237 198 q 298 92 298 140 q 267 14 298 43 q 184 -15 237 -15 q 103 14 134 -15 q 73 92 73 43 m 451 92 q 481 169 451 140 q 562 198 512 198 q 645 169 615 198 q 676 92 676 140 q 645 14 676 43 q 562 -15 615 -15 q 481 14 512 -15 q 451 92 451 43 m 829 92 q 859 169 829 140 q 940 198 890 198 q 1023 169 993 198 q 1054 92 1054 140 q 1023 14 1054 43 q 940 -15 993 -15 q 859 14 890 -15 q 829 92 829 43 "},"?":{"x_min":31.953125,"x_max":597.265625,"ha":631,"o":"m 188 290 q 195 412 181 362 q 234 500 209 463 q 289 564 258 536 q 347 616 320 591 q 393 668 375 641 q 411 732 411 695 q 384 809 411 780 q 287 839 356 839 q 240 834 265 839 q 190 820 215 829 q 142 799 165 811 q 101 775 119 787 l 31 908 q 153 968 84 944 q 319 992 222 992 q 523 928 450 992 q 597 758 597 865 q 578 641 597 688 q 531 562 559 595 q 470 505 504 530 q 409 451 437 480 q 362 385 381 423 q 343 290 343 348 l 188 290 m 161 92 q 191 169 161 140 q 272 198 222 198 q 355 169 325 198 q 386 92 386 140 q 355 14 386 43 q 272 -15 325 -15 q 191 14 222 -15 q 161 92 161 43 "},"H":{"x_min":83.34375,"x_max":819.515625,"ha":904,"o":"m 629 407 l 273 407 l 273 0 l 83 0 l 83 972 l 273 972 l 273 576 l 629 576 l 629 972 l 819 972 l 819 0 l 629 0 l 629 407 "},"c":{"x_min":45.84375,"x_max":570.875,"ha":601,"o":"m 570 43 q 470 -3 529 13 q 348 -19 411 -19 q 207 7 265 -19 q 113 81 150 33 q 61 197 77 129 q 45 347 45 265 q 125 618 45 523 q 355 714 204 714 q 478 701 431 714 q 562 669 525 688 l 519 522 q 456 545 487 537 q 384 554 425 554 q 270 504 309 554 q 231 347 231 455 q 241 265 231 303 q 270 200 251 228 q 321 156 290 172 q 394 141 352 141 q 472 152 440 141 q 529 181 504 164 l 570 43 "},"&":{"x_min":127.78125,"x_max":1040.359375,"ha":1131,"o":"m 127 269 q 145 370 127 322 q 193 460 162 418 q 268 537 225 501 q 361 601 311 573 q 304 694 326 647 q 281 794 281 742 q 295 864 281 829 q 336 928 308 900 q 411 974 365 957 q 522 992 456 992 q 631 976 586 992 q 704 936 676 961 q 744 879 732 911 q 757 814 757 847 q 716 695 757 757 q 579 576 676 633 q 676 439 627 501 q 784 315 725 376 q 842 402 816 350 q 887 509 868 454 l 1018 439 q 995 384 1009 414 q 963 324 980 354 q 927 266 945 293 q 894 219 909 239 q 972 156 938 179 q 1040 114 1005 133 l 944 -19 q 864 28 905 0 q 783 97 823 58 q 658 16 733 51 q 473 -19 583 -19 q 338 0 401 -19 q 228 57 275 19 q 154 148 181 94 q 127 269 127 201 m 675 207 q 545 353 604 280 q 444 492 487 426 q 343 392 377 440 q 308 285 308 344 q 360 174 308 214 q 497 134 412 134 q 601 156 552 134 q 675 207 650 179 m 462 786 q 512 661 462 728 q 591 726 566 696 q 615 784 615 757 q 596 837 615 818 q 536 857 577 857 q 480 837 498 857 q 462 786 462 818 "},"I":{"x_min":102.78125,"x_max":293.078125,"ha":396,"o":"m 102 972 l 293 972 l 293 0 l 102 0 l 102 972 "},"•":{"x_min":101.390625,"x_max":525.046875,"ha":628,"o":"m 101 432 q 118 518 101 479 q 163 585 134 557 q 231 629 193 613 q 312 645 269 645 q 395 630 356 645 q 463 588 434 615 q 508 521 491 561 q 525 432 525 482 q 508 343 525 382 q 463 277 491 304 q 395 235 434 250 q 312 221 356 221 q 231 235 269 221 q 163 277 193 250 q 118 343 134 304 q 101 432 101 382 "},"G":{"x_min":52.78125,"x_max":788.953125,"ha":846,"o":"m 426 507 l 788 507 l 788 73 q 649 3 730 25 q 488 -19 568 -19 q 315 10 395 -19 q 177 101 236 39 q 86 258 119 162 q 52 486 52 354 q 92 720 52 623 q 196 877 131 817 q 341 964 261 937 q 505 992 422 992 q 652 979 588 992 q 752 953 715 967 l 713 793 q 636 815 679 807 q 526 823 593 823 q 416 804 466 823 q 329 745 366 786 q 272 640 293 704 q 252 485 252 576 q 272 334 252 397 q 326 229 291 270 q 407 169 361 188 q 506 150 454 150 q 577 159 543 150 q 636 186 612 168 l 636 369 l 426 392 l 426 507 "},"(":{"x_min":83.34375,"x_max":438.921875,"ha":454,"o":"m 315 -306 q 206 -159 251 -239 q 135 4 162 -79 q 95 174 108 88 q 83 337 83 259 q 95 498 83 413 q 136 668 108 583 q 209 836 163 754 q 319 989 254 918 l 436 914 q 354 777 387 848 q 302 632 322 706 q 272 483 281 558 q 263 337 263 408 q 273 195 263 270 q 304 46 283 120 q 358 -98 325 -28 q 438 -228 391 -169 l 315 -306 "},"`":{"x_min":83.34375,"x_max":355.578125,"ha":439,"o":"m 355 786 l 255 786 l 83 958 l 83 1000 l 272 1000 l 355 786 "},"U":{"x_min":79.171875,"x_max":791.734375,"ha":871,"o":"m 611 972 l 791 972 l 791 344 q 766 181 791 249 q 697 69 741 113 q 588 3 652 24 q 448 -17 525 -17 q 79 320 79 -17 l 79 972 l 269 972 l 269 357 q 279 261 269 300 q 312 197 290 221 q 368 162 334 172 q 445 152 401 152 q 572 200 533 152 q 611 357 611 249 l 611 972 "},"◊":{"x_min":37.5,"x_max":694.5,"ha":732,"o":"m 415 -7 l 311 -7 l 37 474 l 311 979 l 415 979 l 694 481 l 415 -7 m 413 279 l 525 463 l 398 681 l 361 798 l 354 798 l 315 678 l 206 492 l 331 276 l 370 159 l 376 159 l 413 279 "},"F":{"x_min":83.34375,"x_max":659.78125,"ha":706,"o":"m 83 972 l 659 972 l 659 803 l 273 803 l 273 562 l 629 562 l 629 393 l 273 393 l 273 0 l 83 0 l 83 972 "},"r":{"x_min":79.171875,"x_max":486.15625,"ha":488,"o":"m 462 525 q 384 541 419 541 q 303 515 336 541 q 259 449 270 489 l 259 0 l 79 0 l 79 695 l 219 695 l 240 603 l 245 603 q 309 682 269 654 q 404 710 350 710 q 486 694 440 710 l 462 525 "},":":{"x_min":129.34375,"x_max":354.359375,"ha":374,"o":"m 129 595 q 159 672 129 643 q 240 701 190 701 q 323 672 293 701 q 354 595 354 643 q 323 517 354 546 q 240 488 293 488 q 159 517 190 488 q 129 595 129 546 m 129 92 q 159 169 129 140 q 240 198 190 198 q 323 169 293 198 q 354 92 354 140 q 323 14 354 43 q 240 -15 293 -15 q 159 14 190 -15 q 129 92 129 43 "},"x":{"x_min":11.109375,"x_max":718.109375,"ha":729,"o":"m 236 355 l 27 695 l 243 695 l 333 546 l 372 448 l 413 546 l 508 695 l 704 695 l 494 361 l 718 0 l 508 0 l 401 166 l 359 269 l 315 166 l 208 0 l 11 0 l 236 355 "},"*":{"x_min":55.5625,"x_max":469.484375,"ha":525,"o":"m 200 1015 l 238 951 l 259 869 l 280 945 l 319 1014 l 408 965 l 366 892 l 300 832 l 390 855 l 469 855 l 469 753 l 393 753 l 308 775 l 377 710 l 412 652 l 323 601 l 286 664 l 258 753 l 240 673 l 200 605 l 111 656 l 151 724 l 213 775 l 137 753 l 55 753 l 55 856 l 138 856 l 220 832 l 150 894 l 111 963 l 200 1015 "},"†":{"x_min":55.5625,"x_max":651.4375,"ha":707,"o":"m 55 712 l 216 712 l 288 689 l 266 764 l 266 972 l 438 972 l 438 764 l 418 689 l 488 712 l 651 712 l 651 556 l 486 556 l 418 578 l 438 508 l 438 0 l 416 -278 l 288 -278 l 266 0 l 266 508 l 288 578 l 216 556 l 55 556 l 55 712 "},"V":{"x_min":-12.5,"x_max":848.671875,"ha":836,"o":"m 402 401 l 427 236 l 434 236 l 462 402 l 648 972 l 848 972 l 487 -7 l 351 -7 l -12 972 l 208 972 l 402 401 "},"h":{"x_min":79.171875,"x_max":684.78125,"ha":757,"o":"m 504 0 l 504 394 q 480 516 504 479 q 394 554 456 554 q 310 522 348 554 q 259 442 272 491 l 259 0 l 79 0 l 79 972 l 259 972 l 259 616 l 265 616 q 347 687 298 661 q 470 714 395 714 q 563 700 523 714 q 631 654 604 686 q 671 567 658 622 q 684 432 684 512 l 684 0 l 504 0 "},"0":{"x_min":55.5625,"x_max":733.390625,"ha":788,"o":"m 55 487 q 143 867 55 743 q 394 992 230 992 q 651 869 569 992 q 733 487 733 746 q 645 105 733 230 q 393 -19 556 -19 q 137 112 219 -19 q 55 487 55 243 m 236 487 q 272 226 236 318 q 394 134 309 134 q 514 218 476 134 q 552 487 552 303 q 516 747 552 655 q 393 839 480 839 q 272 752 309 839 q 236 487 236 666 "},".":{"x_min":58.34375,"x_max":283.359375,"ha":342,"o":"m 58 92 q 88 169 58 140 q 169 198 119 198 q 252 169 222 198 q 283 92 283 140 q 252 14 283 43 q 169 -15 222 -15 q 88 14 119 -15 q 58 92 58 43 "},"”":{"x_min":52.78125,"x_max":496.96875,"ha":550,"o":"m 292 894 q 319 960 292 935 q 388 985 346 985 q 467 951 438 985 q 496 864 496 918 q 479 769 496 808 q 437 704 462 730 q 386 664 413 679 q 341 643 359 649 l 295 719 q 344 752 323 731 q 369 806 366 773 q 317 827 341 804 q 292 894 292 850 m 52 894 q 79 960 52 935 q 148 985 106 985 q 227 951 198 985 q 256 864 256 918 q 239 769 256 808 q 197 704 222 730 q 146 664 173 679 q 101 643 119 649 l 55 719 q 104 752 83 731 q 129 806 126 773 q 77 827 101 804 q 52 894 52 850 "},"@":{"x_min":101.390625,"x_max":1369.546875,"ha":1471,"o":"m 943 673 l 1040 673 l 973 295 q 972 201 962 230 q 1019 172 983 172 q 1090 188 1055 172 q 1152 240 1125 205 q 1198 327 1180 274 q 1215 452 1215 380 q 1180 630 1215 557 q 1085 752 1145 704 q 943 822 1025 800 q 766 845 861 845 q 565 806 658 845 q 403 698 472 767 q 295 536 334 630 q 256 333 256 443 q 289 138 256 224 q 384 -8 322 52 q 539 -101 447 -68 q 751 -134 632 -134 q 843 -124 791 -134 q 936 -95 894 -114 l 979 -228 q 863 -266 922 -255 q 727 -278 804 -278 q 478 -239 593 -278 q 279 -123 363 -200 q 148 65 195 -47 q 101 327 101 179 q 155 601 101 479 q 301 809 209 723 q 513 942 393 895 q 769 989 634 989 q 1007 952 897 989 q 1197 846 1116 915 q 1323 678 1277 777 q 1369 452 1369 579 q 1338 286 1369 364 q 1252 151 1307 208 q 1124 61 1197 94 q 968 28 1051 28 q 903 35 933 28 q 853 61 873 43 q 823 108 833 79 q 818 180 813 137 l 812 180 q 767 123 791 151 q 713 74 743 96 q 650 40 684 53 q 573 28 615 28 q 509 42 540 28 q 456 83 479 57 q 421 147 434 109 q 408 230 408 185 q 436 398 408 316 q 511 542 463 479 q 622 642 559 604 q 757 681 686 681 q 838 666 805 681 q 900 628 872 651 l 943 673 m 855 504 q 818 528 837 520 q 769 537 798 537 q 692 513 727 537 q 631 452 657 489 q 591 367 605 414 q 577 276 577 321 q 596 201 577 230 q 661 172 615 172 q 702 183 680 172 q 745 215 725 195 q 786 259 766 234 q 820 312 805 284 l 855 504 "},"f":{"x_min":15.28125,"x_max":512.546875,"ha":446,"o":"m 15 694 l 111 694 l 111 732 q 166 923 111 864 q 327 983 222 983 q 512 956 438 983 l 477 811 q 421 826 445 823 q 370 830 397 830 q 327 821 343 830 q 303 796 311 813 q 293 752 295 778 q 291 694 291 727 l 444 694 l 444 541 l 291 541 l 291 0 l 111 0 l 111 541 l 15 541 l 15 694 "},";":{"x_min":107.390625,"x_max":347.6875,"ha":403,"o":"m 114 89 q 145 164 114 136 q 222 192 176 192 q 314 153 281 192 q 347 50 347 114 q 328 -57 347 -12 q 280 -132 308 -103 q 219 -180 251 -162 q 160 -206 186 -197 l 107 -131 q 172 -80 144 -115 q 203 -7 200 -46 q 142 12 171 -11 q 114 89 114 36 m 114 595 q 144 672 114 643 q 225 701 175 701 q 308 672 278 701 q 339 595 339 643 q 308 517 339 546 q 225 488 278 488 q 144 517 175 488 q 114 595 114 546 "},"“":{"x_min":52.78125,"x_max":496.96875,"ha":550,"o":"m 496 859 q 469 794 496 818 q 402 770 442 770 q 321 802 351 770 q 292 889 292 835 q 310 983 292 944 q 351 1048 327 1022 q 402 1088 376 1073 q 448 1110 428 1103 l 492 1035 q 445 999 465 1023 q 423 948 426 975 q 474 923 451 948 q 496 859 496 899 m 256 859 q 229 794 256 818 q 162 770 202 770 q 81 802 111 770 q 52 889 52 835 q 70 983 52 944 q 111 1048 87 1022 q 162 1088 136 1073 q 208 1110 188 1103 l 252 1035 q 205 999 225 1023 q 183 948 186 975 q 234 923 211 948 q 256 859 256 899 "},"i":{"x_min":68.34375,"x_max":298.90625,"ha":374,"o":"m 94 695 l 274 695 l 274 0 l 94 0 l 94 695 m 68 890 q 98 959 68 930 q 180 988 128 988 q 266 959 233 988 q 298 890 298 930 q 266 823 298 850 q 180 796 233 796 q 98 823 128 796 q 68 890 68 850 "},"6":{"x_min":72.234375,"x_max":722.28125,"ha":788,"o":"m 722 301 q 699 175 722 233 q 634 73 676 117 q 534 5 593 30 q 404 -19 475 -19 q 271 3 331 -19 q 166 72 211 26 q 97 187 122 118 q 72 349 72 257 q 111 597 72 486 q 218 791 151 708 q 375 924 286 873 q 565 992 465 975 l 605 849 q 477 805 536 837 q 374 729 419 773 q 297 630 329 684 q 254 516 266 575 q 326 575 281 551 q 437 600 370 600 q 552 580 500 600 q 643 522 605 561 q 701 429 680 484 q 722 301 722 373 m 547 291 q 394 447 547 447 q 300 422 338 447 q 247 363 262 397 q 244 337 244 348 q 244 315 244 326 q 254 249 244 282 q 282 191 263 217 q 330 149 301 165 q 400 134 359 134 q 506 178 465 134 q 547 291 547 222 "},"A":{"x_min":0,"x_max":840.34375,"ha":840,"o":"m 562 215 l 263 215 l 190 0 l 0 0 l 350 979 l 490 979 l 840 0 l 640 0 l 562 215 m 312 368 l 520 368 l 448 584 l 419 737 l 412 737 l 383 583 l 312 368 "},"‘":{"x_min":52.78125,"x_max":256.96875,"ha":310,"o":"m 256 859 q 229 794 256 818 q 162 770 202 770 q 81 802 111 770 q 52 889 52 835 q 70 983 52 944 q 111 1048 87 1022 q 162 1088 136 1073 q 208 1110 188 1103 l 252 1035 q 205 999 225 1023 q 183 948 186 975 q 234 923 211 948 q 256 859 256 899 "},"n":{"x_min":79.171875,"x_max":684.78125,"ha":757,"o":"m 504 0 l 504 394 q 479 516 504 479 q 397 554 455 554 q 310 524 345 554 q 259 449 275 494 l 259 0 l 79 0 l 79 695 l 222 695 l 243 602 l 248 602 q 333 680 280 647 q 469 714 386 714 q 561 700 520 714 q 629 654 601 686 q 670 567 657 622 q 684 432 684 512 l 684 0 l 504 0 "},"O":{"x_min":52.78125,"x_max":877.84375,"ha":931,"o":"m 52 486 q 159 860 52 729 q 465 992 266 992 q 647 955 569 992 q 776 853 725 919 q 852 693 827 786 q 877 486 877 600 q 770 112 877 243 q 465 -19 662 -19 q 281 17 359 -19 q 153 119 204 53 q 77 279 102 186 q 52 486 52 372 m 252 486 q 265 350 252 412 q 303 244 277 289 q 369 175 329 200 q 465 150 409 150 q 622 229 566 150 q 677 486 677 308 q 666 618 677 557 q 629 725 654 679 q 563 797 604 771 q 465 823 523 823 q 308 741 363 823 q 252 486 252 660 "},"3":{"x_min":108.34375,"x_max":691.71875,"ha":788,"o":"m 334 134 q 466 179 420 134 q 511 290 511 225 q 463 406 511 369 q 315 444 416 444 l 215 444 l 215 540 l 383 769 l 462 831 l 352 819 l 119 819 l 119 972 l 650 972 l 650 873 l 454 611 l 393 573 l 393 566 l 451 575 q 543 552 500 570 q 620 500 587 534 q 672 416 652 466 q 691 301 691 366 q 664 160 691 219 q 589 60 637 100 q 477 0 541 19 q 340 -19 413 -19 q 213 -7 279 -19 q 108 24 148 3 l 156 174 q 236 145 193 156 q 334 134 280 134 "},"]":{"x_min":40.28125,"x_max":366.703125,"ha":450,"o":"m 366 -319 l 40 -319 l 40 -166 l 194 -166 l 194 819 l 40 819 l 40 972 l 366 972 l 366 -319 "},"m":{"x_min":79.171875,"x_max":1048.6875,"ha":1118,"o":"m 473 0 l 473 377 q 455 513 473 473 q 380 554 437 554 q 304 528 333 554 q 259 462 275 502 l 259 0 l 79 0 l 79 695 l 219 695 l 240 602 l 245 602 q 327 680 277 647 q 454 714 376 714 q 563 686 520 714 q 629 595 605 659 q 711 682 661 650 q 832 714 761 714 q 931 700 890 714 q 997 652 972 686 q 1036 561 1023 618 q 1048 416 1048 504 l 1048 0 l 868 0 l 868 390 q 850 513 868 472 q 773 554 833 554 q 696 527 725 554 q 654 455 668 501 l 654 0 l 473 0 "},"9":{"x_min":62.5,"x_max":718.109375,"ha":788,"o":"m 62 668 q 84 799 62 739 q 146 901 105 858 q 246 967 187 943 q 381 992 305 992 q 628 898 538 992 q 718 625 718 804 q 677 346 718 464 q 567 151 636 229 q 408 30 498 72 q 218 -19 318 -10 l 179 123 q 315 160 255 132 q 418 229 375 188 q 488 322 461 270 q 526 433 515 374 q 454 383 493 397 q 352 370 416 370 q 247 388 300 370 q 154 442 195 406 q 88 535 113 479 q 62 668 62 592 m 237 678 q 281 559 237 599 q 393 519 326 519 q 486 537 450 519 q 541 581 522 555 q 545 636 545 610 q 536 712 545 675 q 506 779 526 750 q 454 825 486 808 q 380 843 423 843 q 275 799 312 843 q 237 678 237 755 "},"l":{"x_min":84.734375,"x_max":409.75,"ha":408,"o":"m 265 233 q 277 163 265 185 q 318 141 290 141 q 350 143 334 141 q 390 156 366 146 l 409 14 q 341 -7 387 3 q 247 -19 295 -19 q 126 17 168 -19 q 84 139 84 54 l 84 972 l 265 972 l 265 233 "},"8":{"x_min":84.734375,"x_max":704.21875,"ha":788,"o":"m 84 237 q 97 324 84 286 q 132 394 109 362 q 186 450 155 425 q 254 496 218 475 q 147 595 186 539 q 108 735 108 651 q 128 836 108 789 q 186 918 148 883 q 279 972 225 953 q 401 992 333 992 q 515 975 463 992 q 603 928 566 958 q 660 853 640 897 q 680 757 680 810 q 643 618 680 675 q 536 514 607 561 q 661 407 619 465 q 704 257 704 349 q 681 144 704 194 q 616 57 658 93 q 516 1 575 21 q 388 -19 458 -19 q 263 0 319 -19 q 167 51 206 18 q 106 132 127 85 q 84 237 84 179 m 531 256 q 516 314 531 288 q 477 362 501 340 q 422 401 452 383 q 362 436 393 419 q 272 355 297 399 q 248 268 248 311 q 286 173 248 213 q 393 134 325 134 q 493 164 455 134 q 531 256 531 195 m 280 732 q 293 673 280 698 q 327 630 305 648 q 375 595 348 611 q 431 565 402 579 q 515 721 515 636 q 481 809 515 779 q 398 839 447 839 q 309 807 337 839 q 280 732 280 775 "},"p":{"x_min":79.171875,"x_max":704.21875,"ha":750,"o":"m 79 695 l 211 695 l 231 611 l 237 611 q 322 689 273 664 q 443 714 372 714 q 638 631 573 714 q 704 365 704 548 q 683 205 704 276 q 621 83 662 133 q 521 7 580 33 q 386 -19 462 -19 q 315 -12 343 -19 q 259 7 287 -6 l 259 -278 l 79 -278 l 79 695 m 388 561 q 306 534 336 561 q 259 455 276 508 l 259 167 q 302 143 279 152 q 362 134 325 134 q 479 188 440 134 q 518 369 518 243 q 487 511 518 461 q 388 561 456 561 "},"4":{"x_min":26.390625,"x_max":768.109375,"ha":788,"o":"m 768 271 l 615 271 l 615 0 l 447 0 l 447 271 l 26 271 l 26 373 l 466 979 l 615 979 l 615 415 l 768 415 l 768 271 m 447 627 l 459 744 l 454 744 l 406 644 l 262 456 l 193 403 l 281 415 l 447 415 l 447 627 "},"‡":{"x_min":55.5625,"x_max":651.4375,"ha":707,"o":"m 266 514 l 288 576 l 216 556 l 55 556 l 55 712 l 216 712 l 288 691 l 266 760 l 266 972 l 438 972 l 438 760 l 418 691 l 488 712 l 651 712 l 651 556 l 486 556 l 418 576 l 438 514 l 438 397 l 418 335 l 486 356 l 651 356 l 651 200 l 488 200 l 418 220 l 438 151 l 438 0 l 415 -278 l 290 -278 l 266 0 l 266 151 l 288 220 l 216 200 l 55 200 l 55 356 l 216 356 l 288 335 l 266 397 l 266 514 "},"R":{"x_min":83.34375,"x_max":813.953125,"ha":836,"o":"m 83 962 q 152 972 115 967 q 225 980 188 977 q 297 984 262 983 q 361 986 331 986 q 495 973 429 986 q 613 930 561 961 q 696 846 665 899 q 727 712 727 793 q 672 518 727 593 q 523 414 616 443 l 591 371 l 813 0 l 594 0 l 373 380 l 273 399 l 273 0 l 83 0 l 83 962 m 375 817 q 317 815 345 817 q 273 810 288 814 l 273 528 l 354 528 q 480 564 433 528 q 527 683 527 600 q 488 781 527 746 q 375 817 450 817 "},"o":{"x_min":45.84375,"x_max":700.0625,"ha":746,"o":"m 45 347 q 131 618 45 523 q 373 714 218 714 q 518 687 456 714 q 619 613 579 661 q 679 497 659 565 q 700 347 700 429 q 614 76 700 171 q 373 -19 529 -19 q 229 7 290 -19 q 127 81 168 33 q 65 197 86 129 q 45 347 45 265 m 231 347 q 240 262 231 301 q 265 195 248 224 q 309 149 281 165 q 373 134 336 134 q 479 185 444 134 q 513 347 513 236 q 481 502 513 443 q 373 561 450 561 q 269 511 306 561 q 231 347 231 461 "},"5":{"x_min":94.453125,"x_max":675.046875,"ha":788,"o":"m 305 141 q 445 185 397 141 q 494 307 494 229 q 437 429 494 390 q 275 468 380 468 l 165 463 l 165 972 l 643 972 l 643 803 l 320 803 l 320 615 l 377 621 q 500 596 445 618 q 594 534 555 573 q 654 438 633 494 q 675 312 675 382 q 647 168 675 230 q 570 64 619 105 q 454 1 520 22 q 308 -19 387 -19 q 189 -8 245 -19 q 94 19 133 1 l 143 170 q 213 148 175 156 q 305 141 251 141 "}}}
